<?xml version="1.0" encoding="utf-8"?>
<svg xmlns="http://www.w3.org/2000/svg" version="1.2" baseProfile="tiny" viewBox="0 0 1000 1000" width="1000" height="1000">
  
  
  <rect x="0" y="0" width="1000" height="1000" fill="#FFFFFF"/>
  <g id="logo-wrap" transform="translate(0.000000,0.000000) scale(3.333333333) translate(-0.000000,-0.000000)">
    <g>
      
    
      <g fill="#fffffe" transform="matrix(.1 0 0 -.1 0 300)">
        
      
        <path d="M0 1500V0h3000v3000H0V1500z"/>
        
    
      </g>
      
    
      <g fill="#e6e4db" transform="matrix(.1 0 0 -.1 0 300)">
        
      
        <path d="M273 2888c69-121 697-1306 697-1317 0-7-58-146-129-309C566 628 347 124 333 92l-13-32h440v80H448l5 13c3 6 96 221 207 477s239 550 283 653l81 188 11-14c5-8 93-170 195-361l185-346 78 2 79 3 191 357 191 358 7-8c8-8 559-1278 566-1304l5-17-158-3-159-3-3-37-3-38h225c124 0 226 3 226 6s-146 343-325 755l-325 750 24 48c14 26 176 330 360 676 185 345 336 629 336 631s-558 4-1241 4H248l25-42zm2301-70c-50-98-598-1124-604-1131l-7-8-201 463c-111 255-208 480-217 501l-15 37h-69l-15-27c-8-16-105-237-216-493-110-256-204-468-208-472l-7-6-311 584-312 584h2199l-17-32zm-864-772 203-468-30-57c-17-31-106-197-198-369l-167-312h-53l-197 369-197 369 190 439c105 241 199 458 210 483l20 45 8-15c5-8 100-226 211-484z"/>
        
    
      </g>
      
    
      <g fill="#c9c5b3" transform="matrix(.1 0 0 -.1 0 300)">
        
      
        <path d="M260 2924c0-3 162-308 360-679l359-673-320-738C482 427 335 87 333 77l-5-17h432v80H450v7c0 16 575 1332 579 1327 3-3 91-166 196-362l191-357 75-3 75-3 194 365c107 200 197 362 200 359 2-2 134-302 292-666l287-662-159-3-160-2V60h440l-9 23c-5 12-151 350-325 750s-316 733-316 738c0 7 678 1285 717 1352l4 7H1496c-680 0-1236-3-1236-6zm2330-79c0-6-549-1038-600-1128l-27-47-216 497-216 498-38 3-38 3-214-496c-118-272-217-495-221-495s-132 235-285 523c-154 287-295 550-313 585l-33 62h1100c606 0 1101-2 1101-5zm-881-785c110-256 201-472 201-479 0-8-88-180-197-383l-196-369-26 3-26 3-198 372-199 372 188 433c103 238 198 458 212 488l24 54 7-14c5-8 99-224 210-480z"/>
        
    
      </g>
      
    
      <g fill="#bdb38e" transform="matrix(.1 0 0 -.1 0 300)">
        
      
        <path d="M260 2927c0-1 162-306 361-677l361-675-10-25c-5-14-150-349-322-745S335 79 333 72l-5-12h422v70H451l-4 8c-4 5 359 853 540 1261l37 83 12-17c7-9 95-172 196-361l183-344 78 2 78 3 191 358c105 196 194 357 197 357s52-107 108-238c56-130 186-429 288-664 102-236 185-432 185-438v-10h-320V60h439l-41 92c-22 51-166 383-320 737-153 354-283 652-288 662l-10 17 360 673c198 371 360 677 360 682v7H1490c-676 0-1230-1-1230-3zm2300-149c-21-40-163-305-314-588s-278-515-282-515-104 224-223 498l-216 498-34-3-34-3-216-497c-118-274-218-498-221-498-4 0-618 1144-628 1171l-4 9h2211l-39-72zm-851-711 211-488-199-372-198-372-29-3-29-3-197 370c-109 204-198 376-198 382s85 208 189 448c105 240 199 458 211 485 11 27 22 47 24 45s99-224 215-492z"/>
        
    
      </g>
      
    
      <g fill="#848484" transform="matrix(.1 0 0 -.1 0 300)">
        
      
        <path d="M297 2858c22-40 183-342 358-670 176-329 322-598 325-598 4 0 14 16 23 35l17 36-316 590c-173 325-314 593-311 595 2 2 499 3 1104 2l1101-3-305-570c-168-314-310-581-316-595l-10-26 19-37 19-37 358 669c196 368 357 672 357 675s-554 6-1231 6H258l39-72zm749-1329-17-41 193-364 193-363 76-1h77l192 361 193 361-12 38c-6 22-15 41-19 44-4 2-95-161-203-363l-195-366-30-3-30-3-198 371c-109 203-199 370-201 370-1 0-10-18-19-41z"/>
        
    
      </g>
      
  
    </g>
    

  </g>
</svg>
